<svg style="height: 32px; width: 32px;" xmlns="http://www.w3.org/2000/svg" viewBox="0 0 512 512"><defs><filter id="shadow-4" height="300%" width="300%" x="-100%" y="-100%"><feFlood flood-color="rgba(0, 0, 0, 1)" result="flood"></feFlood><feComposite in="flood" in2="SourceGraphic" operator="atop" result="composite"></feComposite><feGaussianBlur in="composite" stdDeviation="2" result="blur"></feGaussianBlur><feOffset dx="0" dy="0" result="offset"></feOffset><feComposite in="SourceGraphic" in2="offset" operator="over"></feComposite></filter><radialGradient id="delapouite-clockwise-rotation-gradient-0"><stop offset="0%" stop-color="#000" stop-opacity="1"></stop><stop offset="100%" stop-color="#000000" stop-opacity="0.02"></stop></radialGradient></defs><g class="" style="" transform="translate(0,0)"><path d="M263.09 50c-11.882-.007-23.875 1.018-35.857 3.13C142.026 68.156 75.156 135.026 60.13 220.233 45.108 305.44 85.075 391.15 160.005 434.41c32.782 18.927 69.254 27.996 105.463 27.553 46.555-.57 92.675-16.865 129.957-48.15l-30.855-36.768c-50.95 42.75-122.968 49.05-180.566 15.797-57.597-33.254-88.152-98.777-76.603-164.274 11.55-65.497 62.672-116.62 128.17-128.168 51.656-9.108 103.323 7.98 139.17 43.862L327 192h128V64l-46.34 46.342C370.242 71.962 317.83 50.03 263.09 50z" fill="#fff" fill-opacity="1" stroke="#000000" stroke-opacity="1" stroke-width="16"></path></g></svg>